<svg width="10" height="9" viewBox="0 0 10 9" fill="none" xmlns="http://www.w3.org/2000/svg">
<path d="M1.72203 6.92429C1.6397 6.73211 1.30203 6.99096 1.10474 6.70492C1.23715 7.21591 1.5771 7.01554 1.74024 7.07178C1.74669 7.02448 1.74441 6.97569 1.72203 6.92429Z" fill="#D4A392"/>
<path d="M3.51827 5.78116C3.51638 6.02883 3.26104 6.33237 3.09144 6.42138C2.83534 6.55546 2.64792 6.77334 2.59708 7.09178C2.54548 7.41022 2.3406 7.91338 1.93046 7.66199C1.86027 7.61841 1.80943 7.57856 1.77111 7.53908C1.76428 7.64038 1.81019 7.74653 2.02114 7.87614C2.43128 8.12791 2.63616 7.62474 2.687 7.3063C2.7386 6.98824 2.92602 6.76999 3.18212 6.63628C3.40749 6.51859 3.78272 6.02175 3.51827 5.78116Z" fill="#D4A392"/>
<path d="M1.93045 7.66211C2.34059 7.91351 2.54547 7.40997 2.59707 7.09191C2.64791 6.77347 2.83533 6.55559 3.09143 6.42114C3.26103 6.3325 3.51636 6.02859 3.51826 5.78129C3.48184 5.74777 3.43328 5.71946 3.37029 5.69749C2.85089 5.51797 2.76021 5.77197 2.55116 5.94926C2.55116 5.94926 2.36297 6.2338 1.95284 6.20028C1.54346 6.16676 0.946275 6.04944 1.10031 6.68632C1.10107 6.69265 1.10259 6.69861 1.10449 6.70494C1.30216 6.99097 1.63945 6.73213 1.72216 6.92431C1.74454 6.9757 1.74682 7.02449 1.74037 7.07179C1.77186 7.08185 1.79728 7.10233 1.81246 7.13921C1.87696 7.28781 1.77945 7.40848 1.7711 7.53921C1.80942 7.57831 1.86026 7.61854 1.93045 7.66211Z" fill="#F8DDC6"/>
<path d="M8.29605 1.97923C8.16364 1.8269 8.03161 1.69729 7.89957 1.5863C7.90944 1.59785 7.92044 1.60865 7.9303 1.61982C9.60614 3.68985 7.48944 5.0068 6.68699 5.1703C5.87772 5.3353 5.41712 5.29284 4.491 6.07683C3.77392 6.6839 3.22606 6.3867 3.01587 6.22208C3.08264 6.30104 3.1718 6.39377 3.28714 6.49619C3.28714 6.49619 3.93024 7.21985 4.85674 6.43586C5.78287 5.65187 6.24347 5.69433 7.05236 5.52971C7.85518 5.36621 9.97188 4.04926 8.29605 1.97923Z" fill="#CD6F28"/>
<path d="M4.49104 6.07682C5.41679 5.29283 5.87776 5.33529 6.68704 5.1703C7.4891 5.0068 9.60618 3.68984 7.93035 1.61982C7.92048 1.60864 7.90948 1.59784 7.89961 1.5863C6.29359 0.233591 4.80025 1.81386 4.50773 2.49952C4.18941 3.24776 4.1435 3.6999 3.18209 4.44292C2.22182 5.18557 2.82279 5.94349 2.82279 5.94349C2.82279 5.94349 2.86794 6.04963 3.01591 6.22207C3.2261 6.38706 3.77358 6.6839 4.49104 6.07682Z" fill="#ED9321"/>
<path d="M5.24321 2.07497C4.9947 2.36435 4.95145 2.73046 5.14722 2.89285C5.343 3.05486 5.70343 2.95206 5.9527 2.66305C6.20121 2.37366 6.24446 2.00755 6.04907 1.84554C5.85292 1.68316 5.49286 1.78595 5.24321 2.07497Z" fill="#F6BA18"/>
</svg>
