<svg width="10" height="10" viewBox="0 0 10 10" fill="none" xmlns="http://www.w3.org/2000/svg">
<path d="M1.06427 7.71667C1.06427 7.71667 1.19765 10.0316 5.2714 9.99724C9.34515 9.96293 9.40442 7.83675 9.4637 7.47651C9.52298 7.11627 7.93811 6.39579 5.00465 6.55018C2.07119 6.70457 0.902906 6.75508 1.06427 7.71667Z" fill="url(#paint0_linear)"/>
<path d="M0.75308 5.7991C0.75308 5.7991 0.515966 6.14218 0.545605 6.37662C0.575244 6.61107 0.456687 6.48527 0.545605 6.81025C0.634523 7.13523 0.560425 7.3163 0.901276 7.4602C1.24213 7.60411 1.07911 7.71275 1.4496 7.83951C1.82009 7.96626 2.04239 8.01963 2.30914 8.18259C2.57589 8.34556 2.67963 8.43514 2.99084 8.41703C3.30205 8.39893 3.67254 8.43514 3.67254 8.43514L4.25051 8.54378C4.25051 8.54378 4.33943 8.58 4.75438 8.61621C5.16932 8.65243 5.31752 8.48946 5.52499 8.47135C5.73247 8.45325 6.04368 8.56189 6.22152 8.50757C6.39935 8.45325 6.79948 8.27313 6.79948 8.27313C6.79948 8.27313 7.16997 7.96626 7.37745 7.98436C7.58492 8.00247 7.92577 7.91193 8.08879 7.80424C8.2518 7.6956 8.62229 7.65939 8.62229 7.65939C8.62229 7.65939 8.87423 7.53263 9.11134 7.38873C9.34846 7.24387 9.46701 7.24387 9.57075 7.15429C9.67449 7.06375 9.71977 7.05422 9.82268 6.82931C9.90913 6.6387 9.89678 6.37758 9.82268 6.10692C9.74858 5.83627 8.57783 5.13199 8.57783 5.13199L1.62991 4.75269L0.75308 5.7991Z" fill="url(#paint1_radial)"/>
<path d="M1.14004 5.25971C1.14004 5.25971 0.585951 5.57706 0.660049 5.74861C0.734147 5.92015 0.77943 5.89918 0.77943 5.89918C0.77943 5.89918 1.5237 6.08026 2.9011 6.48624C4.27851 6.89223 4.96515 7.15717 5.31011 7.4526C5.73988 7.82142 5.84938 8.01488 6.13096 7.95293C6.41253 7.89099 6.62 7.45355 7.16833 6.98562C7.71666 6.51769 7.9266 6.45289 8.6717 6.25561C9.37563 6.06882 9.7313 6.02879 9.76094 5.81055C9.79058 5.59231 9.68684 5.08245 9.55346 5.0043C9.42009 4.92615 2.84265 4.9576 2.84265 4.9576C1.46442 4.8947 1.14004 5.25971 1.14004 5.25971Z" fill="url(#paint2_linear)"/>
<path d="M1.69577 4.49436L1.6192 5.02042L1.732 5.63798C1.75093 5.74281 1.80609 5.8343 1.88431 5.88957C2.16917 6.09257 2.97849 6.52047 4.68768 6.45376C6.91804 6.36703 7.70924 5.99345 8.40494 5.64084C8.95985 5.3597 9.05782 4.43241 9.07511 4.06836C6.88675 5.66371 3.9854 5.73614 1.69577 4.49436Z" fill="url(#paint3_linear)"/>
<path d="M8.71696 4.31336C8.71861 4.22855 8.71696 4.17708 8.71696 4.17708L1.96745 4.14087L1.8703 4.91948C4.02326 5.98686 6.71714 5.83628 8.71696 4.31336Z" fill="#972F00"/>
<path d="M0.661681 3.92543C0.576056 4.02263 0.439387 3.95402 0.326593 3.91208C0.213799 3.87015 0.0746595 3.93591 0.0903025 4.076C0.101006 4.1694 0.156991 4.19418 0.228619 4.23325C0.300247 4.27137 0.371052 4.30282 0.321653 4.37715C0.270608 4.45435 0.207213 4.38573 0.120765 4.4696C-0.0438974 4.6297 0.160284 4.92037 0.269784 4.91656C0.436917 4.91084 0.473142 4.80315 0.56453 4.73168L0.567 4.74693C0.582643 4.84032 0.676501 4.88416 0.744012 4.82984L0.749775 4.82507C0.80576 4.78028 0.887268 4.79076 0.922671 4.85843C0.96713 4.9442 0.908674 5.04998 0.899618 5.15005C0.887268 5.293 1.005 5.43119 1.12356 5.41308C1.24212 5.39498 1.32774 5.22725 1.28657 5.09192C1.28657 5.24726 1.39443 5.39116 1.52287 5.40737C1.6513 5.42357 1.78138 5.3092 1.80773 5.15672C1.81596 5.22439 1.83984 5.28824 1.87442 5.34256C1.92793 5.42643 2.04237 5.42738 2.09589 5.34351C2.12471 5.29777 2.17081 5.26823 2.21692 5.28252C2.13212 5.35304 2.18398 5.53126 2.28114 5.57414C2.37829 5.61703 2.48449 5.57128 2.58082 5.52554C2.75866 5.44072 2.93731 5.3559 3.11515 5.27108C3.23782 5.21295 3.36132 5.15386 3.48893 5.11479C3.79932 5.01949 3.99445 5.12051 4.24062 5.28538C4.35259 5.36067 4.4909 5.35876 4.60123 5.28061C4.64239 5.25107 4.67533 5.22629 4.68109 5.21676C4.83093 5.17578 4.84164 5.38259 4.7873 5.48742C4.75107 5.55699 4.73625 5.64181 4.76589 5.71614C4.83093 5.87911 5.02441 5.81526 5.1158 5.68469C5.20472 5.5589 5.27223 5.49123 5.4056 5.45216C5.54804 5.41022 5.68224 5.45692 5.8115 5.40546C5.91523 5.36448 5.98768 5.26346 6.09719 5.26155C6.2849 5.25774 6.29478 5.55604 6.49155 5.55318C6.67103 5.55032 6.69738 5.37496 6.83076 5.32255C6.94849 5.2768 7.00283 5.34923 7.00941 5.49695C7.016 5.64467 7.04399 5.74855 7.15432 5.81526C7.36838 5.94487 7.61208 5.4331 7.80391 5.60559C7.92411 5.71328 7.86319 5.99252 7.99657 6.07543C8.07643 6.12499 8.1744 6.06399 8.23862 5.98871C8.30284 5.91342 8.41151 5.66944 8.49632 5.63228C8.68074 5.55032 8.86681 5.86386 9.03641 5.74569C9.11709 5.68946 9.13274 5.64085 9.16814 5.53698C9.20272 5.4331 9.25459 5.32159 9.34433 5.29396C9.38714 5.28061 9.43324 5.30349 9.46371 5.34065C9.53369 5.42452 9.64813 5.44358 9.73128 5.37687C9.94781 5.20342 10.0474 4.84985 9.97828 4.44768C9.89101 3.94067 9.36903 3.80058 9.41349 3.49847C9.12615 3.67383 9.03805 3.82917 8.73425 3.70147C8.58853 3.64047 8.44774 3.54327 8.29296 3.54231C8.03032 3.54136 7.82614 3.81106 7.57832 3.91494C7.34533 4.0131 7.08598 3.95687 6.85546 3.84918C6.62575 3.74149 6.41416 3.58425 6.18693 3.46893C5.71517 3.22972 5.17755 3.18207 4.68191 3.33455C4.3106 3.44892 3.9434 3.67383 3.56468 3.60331C3.28722 3.55184 3.04764 3.34694 2.785 3.22877C2.21527 2.97431 1.67024 3.59378 1.10956 3.62904C0.922671 3.64047 0.742365 3.31168 0.55465 3.49371C0.467379 3.57853 0.479729 3.70814 0.511015 3.80344C0.520895 3.82822 0.627925 3.96355 0.661681 3.92543Z" fill="url(#paint4_linear)"/>
<path d="M2.53142 0.543319C1.79867 0.811117 0.931727 1.64119 0.753891 2.62375C0.576056 3.60631 0.892208 3.97323 1.89994 4.29249C2.90768 4.61175 3.61819 4.6127 4.94208 4.72706C6.26514 4.84142 7.86566 4.84142 8.65604 4.40685C9.44642 3.97227 10.0186 4.04089 9.34762 2.18918C8.67662 0.337468 6.32607 0.102073 5.17837 0.0172544C3.63713 -0.0971075 2.90685 0.406085 2.53142 0.543319Z" fill="url(#paint5_linear)"/>
<path d="M2.74877 1.12932C2.78253 1.22939 2.73725 1.28847 2.69526 1.30658C2.65491 1.32469 2.58658 1.31897 2.552 1.217C2.51248 1.09787 2.51989 0.94348 2.56682 0.922514C2.61375 0.901548 2.70925 1.01114 2.74877 1.12932Z" fill="#FADC8B"/>
<path d="M4.10806 1.67256C4.0249 1.72021 3.97056 1.67256 3.9508 1.62586C3.93187 1.58107 3.93105 1.50101 4.01585 1.45241C4.11464 1.39618 4.24802 1.39142 4.27025 1.44383C4.29248 1.4972 4.20685 1.61633 4.10806 1.67256Z" fill="#FADC8B"/>
<path d="M3.35062 1.94223C3.34074 2.04897 3.27817 2.07756 3.23289 2.07184C3.19008 2.06707 3.1308 2.02514 3.14068 1.9165C3.15221 1.78975 3.21972 1.65632 3.26994 1.66204C3.31934 1.66776 3.36133 1.81548 3.35062 1.94223Z" fill="#FADC8B"/>
<path d="M4.47195 0.911043C4.42914 1.00635 4.36163 1.00539 4.32128 0.981567C4.28341 0.958694 4.24142 0.894842 4.28506 0.797634C4.3361 0.684225 4.44149 0.588924 4.48595 0.615608C4.5304 0.643246 4.52299 0.797634 4.47195 0.911043Z" fill="#FADC8B"/>
<path d="M7.07365 1.00154C6.98555 0.969139 6.97403 0.891945 6.98802 0.841435C7.0012 0.793784 7.04812 0.73565 7.13786 0.768053C7.24243 0.806174 7.34205 0.910052 7.32723 0.965327C7.31158 1.02251 7.17903 1.03966 7.07365 1.00154Z" fill="#FADC8B"/>
<path d="M5.81561 0.730988C5.87736 0.811041 5.85266 0.884424 5.8189 0.918732C5.78679 0.952088 5.7201 0.974007 5.65753 0.892048C5.58426 0.796746 5.54474 0.649029 5.58261 0.609955C5.61966 0.571834 5.74233 0.635686 5.81561 0.730988Z" fill="#FADC8B"/>
<path d="M7.72405 1.54966C7.6837 1.45341 7.72405 1.39051 7.76439 1.36764C7.80308 1.34572 7.87224 1.34476 7.91341 1.44292C7.96198 1.55729 7.96528 1.71263 7.91999 1.73741C7.87554 1.76314 7.77262 1.66402 7.72405 1.54966Z" fill="#FADC8B"/>
<path d="M7.23747 2.56842C7.1469 2.58938 7.10409 2.52744 7.09586 2.47693C7.08763 2.42832 7.10409 2.35018 7.19713 2.32921C7.30498 2.30443 7.43506 2.33969 7.44494 2.39687C7.45482 2.4531 7.34532 2.54364 7.23747 2.56842Z" fill="#FADC8B"/>
<path d="M6.25939 1.74393C6.3516 1.74011 6.38535 1.80873 6.387 1.86019C6.38865 1.90975 6.36148 1.98313 6.26679 1.9879C6.15647 1.99266 6.03297 1.93453 6.03133 1.8764C6.02968 1.81826 6.14989 1.74964 6.25939 1.74393Z" fill="#FADC8B"/>
<path d="M5.24177 2.18908C5.21213 2.2901 5.14462 2.30249 5.10181 2.28534C5.06064 2.26914 5.01124 2.21386 5.04171 2.10998C5.07711 1.98895 5.1685 1.87649 5.21625 1.89555C5.26482 1.91366 5.27717 2.06805 5.24177 2.18908Z" fill="#FADC8B"/>
<g opacity="0.2">
<path opacity="0.2" d="M4.73706 0.297341C4.87456 0.297341 5.01699 0.303059 5.16189 0.313542C6.06836 0.381206 8.47655 0.559421 9.10967 2.30439C9.36819 3.01725 9.44476 3.45754 9.34267 3.65101C9.27845 3.77299 9.29821 3.93119 9.3896 4.02649C9.41265 4.05032 9.43653 4.0751 9.46205 4.09988C9.58472 4.22282 9.70081 4.33813 9.7288 4.50395C9.77491 4.77271 9.72304 5.01382 9.59625 5.12437C9.5946 5.12532 9.59213 5.12723 9.59049 5.12818C9.49498 5.1968 9.44805 5.32927 9.47605 5.45506C9.50157 5.57038 9.5098 5.66759 9.5098 5.72382C9.46534 5.77718 9.439 5.84771 9.43735 5.923C9.4357 6.01258 9.46781 6.0974 9.52627 6.15553C9.55838 6.18698 9.57484 6.20795 9.58225 6.21843C9.63412 6.42047 9.63906 6.59106 9.59378 6.68922C9.53697 6.81407 9.52215 6.82646 9.46781 6.87125C9.45135 6.88459 9.43406 6.89888 9.41512 6.91604C9.39536 6.93319 9.36325 6.94654 9.30315 6.97131L9.26528 6.98656C9.17718 7.02278 9.11297 7.11236 9.09815 7.2191C9.08333 7.32584 9.11955 7.43448 9.19365 7.50119C9.19612 7.50405 9.19859 7.50596 9.20106 7.50786C9.16895 7.75279 9.09979 8.25217 8.62227 8.722C7.9768 9.35767 6.84886 9.68741 5.27057 9.70075C5.24093 9.70075 5.21211 9.70075 5.1833 9.70075C4.11217 9.70075 2.66314 9.52254 1.83818 8.67531C1.3656 8.18927 1.32279 7.71371 1.32197 7.69751C1.32114 7.68512 1.3195 7.67273 1.31785 7.66034C1.31126 7.61936 1.30797 7.58124 1.30797 7.54694C1.30962 7.4421 1.26351 7.34394 1.18694 7.28867C1.1326 7.2496 1.06839 7.21433 0.990995 7.18193C0.870791 7.13142 0.870791 7.13142 0.844445 6.97131C0.832919 6.9027 0.818922 6.81788 0.792576 6.72162C0.782697 6.68636 0.777757 6.66254 0.774464 6.64634C0.801633 6.57391 0.820569 6.48242 0.801633 6.33661C0.799986 6.30706 0.828802 6.19175 0.929246 6.02783C0.981938 5.94206 0.990171 5.83246 0.955592 5.73906C0.989348 5.70857 1.04122 5.66759 1.11614 5.61612C1.18859 5.56657 1.23552 5.47889 1.2421 5.38168C1.24787 5.29401 1.21905 5.20823 1.16554 5.14724C1.16718 5.14152 1.16801 5.1358 1.16965 5.13009C1.19188 5.0405 1.23305 4.87277 1.1466 4.70504C1.07991 4.57638 0.961355 4.49919 0.828802 4.49919C0.799163 4.49919 0.769524 4.503 0.740708 4.51063C0.719302 4.48775 0.693779 4.46869 0.665786 4.4563C0.639441 4.44391 0.612271 4.43629 0.585102 4.43438C0.602391 4.36958 0.599922 4.31145 0.593335 4.27142C0.714362 4.25903 0.79587 4.19422 0.845268 4.13895C0.942419 4.0284 0.948182 3.85019 0.860088 3.73201C0.891374 3.71772 0.92019 3.6958 0.944066 3.66721C1.01487 3.58525 1.03792 3.46421 1.00417 3.35557C0.953946 3.19642 0.955592 2.97722 1.00828 2.6856C1.16224 1.8336 1.94439 1.07119 2.6121 0.827218C2.68455 0.800534 2.76358 0.764319 2.85415 0.723339C3.22052 0.553702 3.77873 0.297341 4.73706 0.297341ZM4.73706 0C3.49386 0 2.86897 0.419327 2.53141 0.542266C1.79866 0.810064 0.931716 1.64014 0.753881 2.6227C0.691309 2.96865 0.691309 3.23644 0.759644 3.45468C0.732475 3.44325 0.705305 3.43562 0.677313 3.43562C0.636971 3.43562 0.596628 3.45087 0.555463 3.4909C0.468192 3.57572 0.480541 3.70533 0.511827 3.80063C0.519237 3.82445 0.602391 3.93119 0.646027 3.93119C0.65179 3.93119 0.657553 3.92929 0.66167 3.92452C0.629561 3.96169 0.590042 3.97503 0.548053 3.97503C0.477248 3.97503 0.397387 3.93882 0.326582 3.91213C0.303529 3.90355 0.279653 3.89974 0.2566 3.89974C0.16439 3.89974 0.0779418 3.96455 0.0902915 4.07605C0.100995 4.16945 0.15698 4.19422 0.228608 4.2333C0.300236 4.27142 0.371041 4.30287 0.321642 4.3772C0.270597 4.4544 0.207202 4.38578 0.120754 4.46869C-0.0422617 4.62689 0.157803 4.9147 0.268127 4.9147C0.26895 4.9147 0.269773 4.9147 0.270597 4.9147C0.437729 4.9147 0.473955 4.8013 0.565342 4.72982L0.567812 4.74507C0.579339 4.81083 0.627914 4.85181 0.679783 4.85181C0.702012 4.85181 0.724242 4.84418 0.744824 4.82798L0.750588 4.82322C0.772817 4.80511 0.799163 4.79653 0.825509 4.79653C0.864205 4.79653 0.902077 4.81654 0.923483 4.85752C0.967942 4.9433 0.909487 5.04908 0.901254 5.14915C0.894667 5.23111 0.93007 5.31021 0.983585 5.35976C0.825509 5.46745 0.611448 5.639 0.6592 5.74955C0.681429 5.80101 0.700366 5.83341 0.716832 5.85628C0.65179 5.96302 0.52253 6.20128 0.54476 6.37854C0.574399 6.61298 0.455842 6.48718 0.54476 6.81216C0.633677 7.13714 0.559579 7.31821 0.90043 7.46212C0.966295 7.48976 1.01322 7.51644 1.04945 7.54217C1.04863 7.59745 1.05357 7.65558 1.06345 7.71848C1.06345 7.71848 1.19518 10 5.18165 10C5.21129 10 5.24093 10 5.27057 10C9.34432 9.96569 9.40359 7.83951 9.46287 7.47927C9.47275 7.41733 9.43406 7.3449 9.34926 7.26865C9.43982 7.23053 9.50651 7.20861 9.56661 7.1562C9.67035 7.06566 9.71563 7.05613 9.81854 6.83122C9.90499 6.64062 9.89264 6.37949 9.81854 6.10883C9.80537 6.06214 9.75927 6.00114 9.69175 5.93348C9.72963 5.89917 9.75268 5.8601 9.75927 5.81245C9.77326 5.70952 9.7568 5.54084 9.72222 5.38359C9.72551 5.38168 9.7288 5.37978 9.73127 5.37787C9.9478 5.20442 10.0474 4.85085 9.97827 4.44868C9.92475 4.138 9.70904 3.9655 9.5592 3.80921C9.70246 3.53855 9.67035 3.09254 9.34432 2.19289C8.67249 0.34118 6.32441 0.105785 5.17671 0.0209663C5.02275 0.00571803 4.8762 0 4.73706 0Z" fill="#424242"/>
</g>
<defs>
<linearGradient id="paint0_linear" x1="5.258" y1="7.43837" x2="5.258" y2="9.90882" gradientUnits="userSpaceOnUse">
<stop stop-color="#FFC044"/>
<stop offset="0.8473" stop-color="#CA4300"/>
</linearGradient>
<radialGradient id="paint1_radial" cx="0" cy="0" r="1" gradientUnits="userSpaceOnUse" gradientTransform="translate(5.19635 6.68671) scale(4.69683 2.06706)">
<stop stop-color="#583223"/>
<stop offset="0.1013" stop-color="#7B3915"/>
<stop offset="0.225" stop-color="#A04106"/>
<stop offset="0.2906" stop-color="#AE4400"/>
<stop offset="0.3208" stop-color="#A84302"/>
<stop offset="0.7241" stop-color="#623A15"/>
<stop offset="0.9458" stop-color="#603813"/>
</radialGradient>
<linearGradient id="paint2_linear" x1="5.20947" y1="4.96712" x2="5.20947" y2="7.90417" gradientUnits="userSpaceOnUse">
<stop offset="0.00492611" stop-color="#FBC02D"/>
<stop offset="0.0811" stop-color="#FCCA30"/>
<stop offset="0.2088" stop-color="#FDD534"/>
<stop offset="0.3596" stop-color="#FDD835"/>
<stop offset="0.6897" stop-color="#FFF59D"/>
<stop offset="1" stop-color="#FDD835"/>
</linearGradient>
<linearGradient id="paint3_linear" x1="2.16004" y1="5.36518" x2="8.88807" y2="5.2553" gradientUnits="userSpaceOnUse">
<stop stop-color="#FF3D2A"/>
<stop offset="0.0408" stop-color="#F63424"/>
<stop offset="0.1741" stop-color="#DD1D14"/>
<stop offset="0.3141" stop-color="#CC0D09"/>
<stop offset="0.4638" stop-color="#C10302"/>
<stop offset="0.6404" stop-color="#BE0000"/>
<stop offset="0.9902" stop-color="#FF1500"/>
</linearGradient>
<linearGradient id="paint4_linear" x1="5.03045" y1="4.53647" x2="5.03045" y2="6.21055" gradientUnits="userSpaceOnUse">
<stop stop-color="#518F00"/>
<stop offset="0.1974" stop-color="#619E15"/>
<stop offset="0.404" stop-color="#6FAA27"/>
<stop offset="0.4245" stop-color="#72AD2B"/>
<stop offset="0.5468" stop-color="#80B93C"/>
<stop offset="0.6779" stop-color="#88C147"/>
<stop offset="0.8325" stop-color="#8BC34A"/>
<stop offset="1" stop-color="#8CC63F"/>
</linearGradient>
<linearGradient id="paint5_linear" x1="2.476" y1="0.470843" x2="8.77366" y2="4.52103" gradientUnits="userSpaceOnUse">
<stop stop-color="#FFC044"/>
<stop offset="0.8473" stop-color="#CA4300"/>
</linearGradient>
</defs>
</svg>
