<svg width="9" height="10" viewBox="0 0 9 10" fill="none" xmlns="http://www.w3.org/2000/svg">
<g clip-path="url(#clip0)">
<path d="M3.79999 9.35557L0.47484 1.99075L0.294299 1.59101C0.143595 1.25708 0.339498 0.879356 0.719878 0.765195C3.10957 0.0480665 5.76461 0.017616 8.29371 0.816288C8.67091 0.935354 8.85844 1.31604 8.70265 1.64678L8.53697 1.99873L5.06949 9.36401C4.83105 9.87038 4.03005 9.86502 3.79999 9.35557Z" fill="#ECB67C"/>
<path d="M0.382401 1.78733L0.293781 1.59095C0.143076 1.25702 0.338979 0.879291 0.719359 0.76513C3.10905 0.0480009 5.76409 0.0174363 8.29332 0.816109C8.67052 0.935174 8.85805 1.31586 8.70226 1.6466L8.62316 1.81471C8.62316 1.81471 6.36831 1.11035 4.50005 1.11035C2.6318 1.11035 0.382401 1.78733 0.382401 1.78733Z" fill="#E1AC77"/>
<path d="M4.43727 9.95925C4.43473 9.95925 4.43232 9.95925 4.42991 9.95925C4.04661 9.95674 3.71917 9.75693 3.57507 9.43794L0.0693756 1.6735C-0.0286395 1.45635 -0.0225453 1.21947 0.0866425 1.00655C0.194688 0.795674 0.397574 0.632472 0.64312 0.558798C3.1811 -0.202809 5.85468 -0.184676 8.37451 0.610917C8.61739 0.687557 8.81634 0.852926 8.92045 1.06448C9.02456 1.27593 9.02672 1.5193 8.92654 1.73212L5.29325 9.44935C5.14483 9.76434 4.8174 9.95925 4.43727 9.95925ZM4.02515 9.27394C4.09498 9.42859 4.24759 9.52165 4.43346 9.52302C4.62175 9.52496 4.77347 9.43327 4.84584 9.27942L8.479 1.5623C8.52801 1.4584 8.52687 1.34424 8.47608 1.24091C8.42517 1.13759 8.33185 1.05992 8.21327 1.02251C5.79615 0.259196 3.23151 0.241975 0.796999 0.972561C0.676384 1.00871 0.580781 1.08558 0.527838 1.18902C0.475402 1.29144 0.472355 1.40514 0.519585 1.50961L4.02515 9.27394Z" fill="black"/>
<path d="M3.87034 9.4282L0.909316 2.86992C0.898143 2.84517 0.911474 2.81677 0.939152 2.80685C3.1544 2.01296 5.70279 1.96689 8.07547 2.85418C8.10289 2.86444 8.11597 2.89318 8.10442 2.9177L5.03547 9.43595C4.81672 9.9007 4.08148 9.89579 3.87034 9.4282Z" fill="#F8CC77"/>
<path d="M1.08426 3.27273L0.902327 2.86992C0.891154 2.84517 0.904485 2.81677 0.932163 2.80685C3.14741 2.01296 5.6958 1.96689 8.06848 2.85418C8.0959 2.86444 8.10898 2.89318 8.09742 2.9177L7.91104 3.31367C7.91104 3.31367 6.1662 2.75678 4.50019 2.75678C2.83419 2.75678 1.08426 3.27273 1.08426 3.27273Z" fill="#E9BB6D"/>
<path d="M4.45523 9.99999C4.45295 9.99999 4.45066 9.99999 4.44825 9.99999C4.08831 9.99759 3.78055 9.80998 3.64534 9.51038L0.684188 2.95198C0.654352 2.88572 0.655114 2.81296 0.686347 2.74716C0.717579 2.68135 0.775474 2.6306 0.84924 2.60425C3.21646 1.75586 5.81614 1.77296 8.16863 2.65295C8.24176 2.68021 8.2989 2.73176 8.32911 2.79802C8.35933 2.86428 8.35882 2.93704 8.32785 3.00285L5.25916 9.52099C5.11988 9.81683 4.81212 9.99999 4.45523 9.99999ZM4.09542 9.34627C4.15636 9.4813 4.28955 9.56262 4.4518 9.56364C4.61101 9.56068 4.74864 9.48518 4.81174 9.35094L7.80578 2.99167C5.67661 2.24044 3.34786 2.22493 1.20639 2.94788L4.09542 9.34627Z" fill="black"/>
<path d="M5.53266 4.88116C6.10266 4.88116 6.56473 4.46608 6.56473 3.95407C6.56473 3.44205 6.10266 3.02698 5.53266 3.02698C4.96266 3.02698 4.50058 3.44205 4.50058 3.95407C4.50058 4.46608 4.96266 4.88116 5.53266 4.88116Z" fill="#E9785A"/>
<path d="M5.53265 5.09936C4.82966 5.09936 4.25769 4.58558 4.25769 3.9541C4.25769 3.32262 4.82966 2.80884 5.53265 2.80884C6.23564 2.80884 6.80761 3.32262 6.80761 3.9541C6.80761 4.58558 6.23564 5.09936 5.53265 5.09936ZM5.53265 3.24518C5.09742 3.24518 4.74345 3.56326 4.74345 3.9541C4.74345 4.34494 5.09755 4.66302 5.53265 4.66302C5.96775 4.66302 6.32185 4.34494 6.32185 3.9541C6.32185 3.56326 5.96788 3.24518 5.53265 3.24518Z" fill="black"/>
<path d="M3.77067 5.88193C3.77067 6.394 3.30852 6.80902 2.73859 6.80902C2.70901 6.80902 2.67955 6.80788 2.6506 6.80571L1.95764 5.27588C2.14694 5.07927 2.42664 4.95496 2.73859 4.95496C3.30865 4.95484 3.77067 5.36997 3.77067 5.88193Z" fill="#EC6D57"/>
<path d="M2.73857 7.02723C2.70188 7.02723 2.6657 7.02586 2.62977 7.02312C2.53886 7.01605 2.46002 6.96393 2.42561 6.88797L1.73252 5.35815C1.69812 5.28219 1.71399 5.19529 1.77378 5.13324C2.01628 4.88131 2.36797 4.73682 2.73857 4.73682C3.44157 4.73682 4.01353 5.2506 4.01353 5.88208C4.01353 6.51356 3.44157 7.02723 2.73857 7.02723ZM2.24405 5.32941L2.81412 6.58769C3.21405 6.55347 3.5279 6.24999 3.5279 5.88196C3.5279 5.49101 3.1738 5.17305 2.7387 5.17305C2.55727 5.17293 2.38321 5.22893 2.24405 5.32941Z" fill="black"/>
<path d="M5.42461 8.60953C4.94913 8.52662 4.59021 8.15072 4.59021 7.69943C4.59021 7.18736 5.05235 6.77234 5.62229 6.77234C5.83609 6.77234 6.03466 6.83073 6.19933 6.93064L5.42461 8.60953Z" fill="#E9785A"/>
<path d="M5.42472 8.82774C5.40936 8.82774 5.39387 8.82648 5.37838 8.82375C4.78102 8.71974 4.34744 8.2469 4.34744 7.69958C4.34744 7.0681 4.91941 6.55432 5.6224 6.55432C5.87785 6.55432 6.12441 6.62207 6.33542 6.75003C6.43103 6.80808 6.46797 6.91859 6.42379 7.01439L5.64906 8.69328C5.61085 8.77573 5.52134 8.82774 5.42472 8.82774ZM5.6224 6.99044C5.18717 6.99044 4.8332 7.30852 4.8332 7.69947C4.8332 7.97854 5.01514 8.22625 5.2857 8.34098L5.88979 7.03206C5.80472 7.00469 5.71458 6.99044 5.6224 6.99044Z" fill="black"/>
</g>
<defs>
<clipPath id="clip0">
<rect width="9" height="10" fill="white"/>
</clipPath>
</defs>
</svg>
