<svg width="9" height="10" viewBox="0 0 9 10" fill="none" xmlns="http://www.w3.org/2000/svg">
<path d="M4.5253 8.02114C6.62187 8.02114 8.32147 6.95817 8.32147 5.64692C8.32147 4.33568 6.62187 3.27271 4.5253 3.27271C2.42873 3.27271 0.729126 4.33568 0.729126 5.64692C0.729126 6.95817 2.42873 8.02114 4.5253 8.02114Z" fill="#616161"/>
<path d="M2.99248 4.91799C2.98826 4.9133 2.98475 4.90783 2.98193 4.90237C2.87084 4.67737 2.75693 4.45393 2.65076 4.22737C2.46725 3.83752 2.231 3.47971 1.86115 3.19612C1.82108 3.16487 1.7585 3.16877 1.72404 3.20393C1.51311 3.41643 1.51451 3.66799 1.54967 3.92502C1.58975 4.21955 1.67623 4.50471 1.77819 4.78674C1.79014 4.82033 2.0517 5.40783 2.06365 5.4383C2.09951 5.52893 2.14451 5.44533 2.21061 5.51721C2.32873 5.64377 2.22115 5.45862 2.34701 5.58049C2.3667 5.60002 2.39623 5.60862 2.42647 5.60705C2.65217 5.59377 2.87295 5.6469 3.09725 5.65393C3.11975 5.65471 3.14225 5.64846 3.15912 5.63674C3.26248 5.56252 3.17881 5.46643 3.17529 5.37893C3.14154 5.21721 3.1092 5.05471 2.99248 4.91799Z" fill="#37654B"/>
<path d="M5.32828 4.53673C4.95632 5.07267 4.31296 5.2172 3.76312 4.71486C3.29906 4.29064 3.19218 3.5633 3.56413 3.02736C3.93609 2.49142 4.64203 2.33673 5.11804 2.74455C5.59406 3.15158 5.70023 4.0008 5.32828 4.53673Z" fill="#A60500"/>
<path d="M5.24249 4.44775C4.89585 4.94696 4.23491 5.00868 3.79194 4.629C3.34897 4.24931 3.27795 3.57743 3.62389 3.07821C3.96983 2.579 4.61038 2.48212 5.05264 2.86181C5.49491 3.2415 5.58842 3.94853 5.24249 4.44775Z" fill="#D90500"/>
<path d="M5.17405 4.40512C5.49699 3.93969 5.42395 3.27555 5.01091 2.92173C4.59787 2.56791 4.00123 2.65838 3.67828 3.12382C3.35534 3.58925 3.42838 4.25338 3.84142 4.60721C4.25446 4.96103 4.8511 4.87055 5.17405 4.40512Z" fill="#FE5601"/>
<path d="M3.79194 3.17349C3.67522 3.33911 3.60561 3.54693 3.60209 3.75396C3.59998 3.88443 3.62178 4.01177 3.76029 4.00474C3.86717 3.99927 3.97615 3.94458 4.07248 3.89693C4.1449 3.86099 4.21733 3.82114 4.28623 3.77739C4.28623 3.77739 3.99654 3.79536 3.96842 3.61489C3.94029 3.43443 4.03522 3.33599 4.18639 3.42505C4.33686 3.51411 4.37342 3.60005 4.37342 3.60005C4.36006 3.5688 4.38397 3.48833 4.38467 3.45318C4.38748 3.37036 4.39803 3.29458 4.41139 3.21333C4.42475 3.12896 4.42897 3.03599 4.38889 2.96255C4.31576 2.82818 4.17233 2.86099 4.06686 2.91958C3.95998 2.97974 3.86647 3.06802 3.79194 3.17349Z" fill="#A40400"/>
<path d="M5.22351 3.49768C5.21367 3.47111 5.20242 3.44455 5.19046 3.41955C5.11101 3.25783 4.98937 3.12658 4.8607 3.01096C4.7939 2.9508 4.7039 2.89065 4.62726 2.93361C4.56679 2.96721 4.54499 3.05002 4.53234 3.12346C4.50562 3.28752 4.49085 3.46486 4.50773 3.63049C4.52179 3.50471 4.65187 3.36721 4.7721 3.41408C4.82414 3.43439 4.86421 3.48908 4.87054 3.54924C4.88882 3.70861 4.71796 3.76955 4.61109 3.80158C4.72218 3.88283 4.83328 3.96408 4.94507 4.04611C4.99289 4.08127 5.04632 4.11721 5.10257 4.10939C5.17289 4.10002 5.2214 4.0258 5.24531 3.95158C5.29242 3.80627 5.27695 3.64221 5.22351 3.49768Z" fill="#A40400"/>
<path d="M4.22226 4.63516C4.53163 4.81641 4.94226 4.61406 4.99078 4.44531C5.0196 4.34453 4.89163 4.22578 4.83538 4.16875C4.74398 4.07578 4.64343 3.99141 4.53796 3.91875C4.60476 3.98047 4.62726 4.09531 4.58859 4.18281C4.55414 4.26094 4.3896 4.37188 4.32351 4.27891C4.30523 4.25313 4.30523 4.21797 4.30734 4.18516C4.31367 4.08594 4.32984 3.98516 4.35937 3.89062L3.80038 4.12344C3.80038 4.12422 3.83273 4.40703 4.22226 4.63516Z" fill="#A40400"/>
<path d="M4.17867 3.32497C4.16109 3.30231 4.1421 3.27809 4.13929 3.2484C4.13648 3.21872 4.15757 3.18434 4.18429 3.18903C4.20257 3.19216 4.21452 3.21247 4.21734 3.232C4.22015 3.25231 4.21452 3.27262 4.2089 3.29137C4.20538 3.30387 4.20116 3.31637 4.19202 3.32419C4.18288 3.332 4.16671 3.33044 4.16179 3.31872" fill="#FF7A42"/>
<path d="M4.07884 3.24299C4.07674 3.21877 4.05072 3.20002 4.03103 3.21096C4.00994 3.22189 4.00642 3.25627 4.01838 3.27893C4.02963 3.30158 4.05142 3.31565 4.07181 3.32815C4.08517 3.29846 4.08095 3.26018 4.06127 3.2344" fill="#FF7A42"/>
<path d="M3.98112 3.32575C3.96846 3.30778 3.9551 3.28903 3.93682 3.27966C3.91783 3.27028 3.89252 3.27497 3.88268 3.29528C3.87354 3.31559 3.88479 3.34137 3.90237 3.35309C3.91994 3.36481 3.94174 3.36637 3.96213 3.36716" fill="#FF7A42"/>
<path d="M3.92204 3.43207C3.89814 3.42582 3.88056 3.40394 3.85876 3.39144C3.83696 3.37894 3.80392 3.3805 3.79478 3.4055C3.78634 3.42894 3.80743 3.45472 3.82993 3.45785C3.85243 3.46097 3.87423 3.44925 3.89392 3.43832" fill="#FF7A42"/>
<path d="M3.86482 3.54217C3.84795 3.52967 3.82967 3.51717 3.80928 3.51638C3.78889 3.5156 3.76709 3.53201 3.76709 3.55467C3.76779 3.5781 3.79311 3.59373 3.8142 3.58982C3.83529 3.58592 3.85217 3.56873 3.86834 3.55232" fill="#FF7A42"/>
<path d="M3.87703 3.65463C3.83555 3.64994 3.79195 3.66556 3.76102 3.69681C3.76875 3.72416 3.79617 3.74213 3.82149 3.73744C3.8468 3.73275 3.86649 3.70463 3.86578 3.6765" fill="#FF7A42"/>
<path d="M3.92133 3.75073C3.90797 3.76636 3.88829 3.77339 3.87211 3.78589C3.85594 3.79839 3.84329 3.82183 3.85172 3.84136C3.86297 3.86636 3.90024 3.85933 3.91289 3.83589C3.92555 3.81245 3.92274 3.78198 3.91852 3.75464" fill="#FF7A42"/>
<path d="M4.18074 4.15867C4.17019 4.18602 4.15824 4.2157 4.13504 4.23133C4.11183 4.24695 4.07527 4.23992 4.06754 4.21102C4.06261 4.19149 4.07316 4.17039 4.08863 4.15945C4.1041 4.14852 4.12238 4.14461 4.14066 4.14227C4.15191 4.1407 4.16457 4.13914 4.17511 4.14539C4.18566 4.15164 4.19129 4.16805 4.18355 4.17742" fill="#FF7A42"/>
<path d="M4.15756 4.29387C4.13858 4.30637 4.13506 4.34075 4.15193 4.35559C4.17022 4.372 4.19904 4.36106 4.2124 4.33997C4.22576 4.31887 4.22787 4.29153 4.22928 4.26575C4.19904 4.26575 4.17022 4.28606 4.15756 4.31653" fill="#FF7A42"/>
<path d="M4.26581 4.35632C4.25667 4.37664 4.24683 4.39773 4.24753 4.42039C4.24824 4.44304 4.263 4.46726 4.28339 4.46804C4.30378 4.46882 4.31996 4.44617 4.32206 4.42351C4.32417 4.40085 4.31574 4.37898 4.308 4.35789" fill="#FF7A42"/>
<path d="M4.3783 4.37048C4.38322 4.39705 4.37338 4.42439 4.37267 4.45173C4.37197 4.47908 4.38674 4.51189 4.41135 4.50955C4.43385 4.50798 4.4458 4.47595 4.43877 4.45173C4.43174 4.42751 4.41275 4.41111 4.39517 4.39548" fill="#FF7A42"/>
<path d="M4.49224 4.3814C4.48943 4.40405 4.48732 4.42749 4.49505 4.4478C4.50349 4.46812 4.52599 4.48374 4.54427 4.47358C4.56325 4.46265 4.56466 4.43062 4.55271 4.41108C4.54075 4.39155 4.51966 4.38218 4.49927 4.3728" fill="#FF7A42"/>
<path d="M4.57874 4.32039C4.5928 4.36414 4.62373 4.40086 4.66241 4.41883C4.68139 4.3993 4.6842 4.36414 4.66944 4.34071C4.65467 4.31727 4.62374 4.30946 4.60053 4.32274" fill="#FF7A42"/>
<path d="M4.63776 4.23518C4.65604 4.24221 4.6701 4.25861 4.68768 4.26955C4.70526 4.28049 4.72916 4.28361 4.74112 4.26643C4.75658 4.24455 4.73479 4.21018 4.71018 4.20705C4.68557 4.20393 4.66237 4.22033 4.64197 4.23596" fill="#FF7A42"/>
<path d="M4.82414 3.83671C4.85085 3.83671 4.87968 3.83671 4.90218 3.85389C4.92398 3.87108 4.93312 3.91171 4.91273 3.93046C4.89867 3.94296 4.87687 3.94061 4.8614 3.92967C4.84593 3.91874 4.83609 3.90077 4.82624 3.88358C4.82062 3.87264 4.81429 3.86014 4.815 3.84764C4.8157 3.83514 4.82765 3.82186 4.8382 3.82577" fill="#FF7A42"/>
<path d="M4.94577 3.80692C4.96335 3.82177 4.99288 3.81161 4.99921 3.78817C5.00554 3.76317 4.98444 3.73817 4.96194 3.73271C4.93874 3.72724 4.91553 3.73661 4.89374 3.74521C4.90499 3.77567 4.93382 3.79755 4.96405 3.79833" fill="#FF7A42"/>
<path d="M4.95422 3.67173C4.97461 3.6733 4.9957 3.67408 5.01469 3.6647C5.03297 3.65533 5.04703 3.63033 5.04 3.60923C5.03227 3.58814 5.00695 3.58033 4.98797 3.58736C4.96828 3.59439 4.95352 3.61158 4.93945 3.62798" fill="#FF7A42"/>
<path d="M4.92114 3.55154C4.94153 3.53591 4.96755 3.53513 4.99005 3.52498C5.01255 3.51482 5.03364 3.48669 5.02239 3.46248C5.01185 3.4406 4.98091 3.4406 4.96403 3.45701C4.94716 3.47341 4.94083 3.49919 4.93521 3.52341" fill="#FF7A42"/>
<path d="M4.88458 3.43118C4.90427 3.42493 4.92466 3.4179 4.93872 3.4015C4.95278 3.38509 4.9563 3.3554 4.94013 3.34134C4.92395 3.3265 4.89653 3.33743 4.88528 3.35775C4.87403 3.37806 4.87403 3.40306 4.87473 3.42728" fill="#FF7A42"/>
<path d="M4.80022 3.36711C4.83116 3.33586 4.84874 3.28899 4.84804 3.24289C4.82413 3.23196 4.79389 3.24289 4.78054 3.26711C4.76718 3.29133 4.7728 3.32649 4.79249 3.34446" fill="#FF7A42"/>
<path d="M4.706 3.34135C4.7046 3.31947 4.71233 3.29838 4.71444 3.27729C4.71655 3.25541 4.70952 3.22963 4.69053 3.22416C4.66663 3.21713 4.64694 3.25307 4.65397 3.27963C4.66171 3.30619 4.68421 3.32338 4.7053 3.33744" fill="#FF7A42"/>
<path d="M2.74218 5.47186C2.71757 5.27264 2.55585 5.17733 2.46515 5.02811C2.41804 4.94998 2.34913 4.88826 2.29007 4.81873C1.99194 4.45311 1.6671 4.11951 1.27476 3.88201C1.16155 3.81326 1.02515 3.68436 0.899991 3.80623C0.772022 3.93123 0.857803 4.10389 0.902803 4.25076C0.975225 4.48904 1.11726 4.68514 1.23538 4.89529C1.22835 5.03201 1.35351 5.07654 1.39499 5.17889C1.60241 5.44998 1.83163 5.69451 2.11288 5.87108C2.32804 5.74764 2.53968 5.61873 2.74218 5.47186Z" fill="#19432D"/>
<path d="M2.15646 3.59849C2.26545 3.80552 2.4124 4.18755 2.42646 4.1813C2.56357 4.12193 2.69928 3.97818 2.81248 4.08755C2.91443 4.18599 2.79842 4.30865 2.75271 4.41568C2.70701 4.52349 2.60857 4.6188 2.66271 4.74771C2.69295 4.79146 2.74287 4.79927 2.78435 4.77974C2.85396 4.74693 2.46232 5.53443 2.82092 5.70005C3.12326 5.8399 4.01623 6.25709 4.43178 6.14537C4.62092 6.09459 4.52881 5.48521 4.55764 5.48052C4.62795 5.4688 4.17584 4.77193 4.24615 4.76177C4.29045 4.75552 3.65975 4.49693 3.65131 4.4438C3.64217 4.40474 3.63373 4.36568 3.61826 4.3274C3.59646 4.27583 3.56342 4.22818 3.55217 4.17271C3.54725 4.13599 3.54935 4.10005 3.55709 4.06412C3.57467 4.00787 3.58873 3.95083 3.59154 3.89224C3.59365 3.84146 3.59225 3.79146 3.5831 3.74068C3.57607 3.71177 3.54935 3.63912 3.50365 3.56646C3.45654 3.49068 3.38975 3.4149 3.34967 3.37896C3.24701 3.28521 3.131 3.2063 3.09795 3.18834C2.75271 2.99459 2.49959 3.05708 2.45459 3.41646C2.42787 3.64068 2.29006 3.67818 2.15646 3.59849Z" fill="url(#paint0_linear)"/>
<path d="M3.98733 6.67123C4.38019 6.27779 4.3465 5.52469 3.91206 4.98914C3.47763 4.45358 2.80697 4.33838 2.41411 4.73182C2.02124 5.12527 2.05494 5.87836 2.48937 6.41392C2.9238 6.94947 3.59446 7.06467 3.98733 6.67123Z" fill="white"/>
<path d="M2.71828 6.18526C2.42367 5.82198 2.40047 5.31104 2.66765 5.04386C2.93414 4.77667 3.38906 4.8548 3.68367 5.21808C3.97828 5.58136 4.00148 6.0923 3.7343 6.35948C3.46711 6.62667 3.01289 6.54855 2.71828 6.18526Z" fill="url(#paint1_linear)"/>
<path d="M7.5466 4.3868C7.69285 4.32665 7.76246 4.39071 7.77863 4.55555C7.78496 4.61571 7.81027 4.67274 7.82715 4.73133C7.90098 4.9829 7.94949 5.00555 8.15551 4.88602C8.21949 4.77977 8.27223 4.66024 8.33269 4.5493C8.43957 4.35399 8.5591 4.16415 8.58371 3.92977C8.60762 3.70243 8.5373 3.63602 8.34957 3.72196C8.03387 3.86727 7.77652 4.1079 7.5466 4.3868Z" fill="#37654B"/>
<path d="M7.87851 5.8953C7.93335 5.81561 8.26804 5.74842 8.45858 5.42498C8.56124 5.25076 8.61397 5.18983 8.68991 4.99998C8.72296 4.91795 8.76725 4.81795 8.70046 4.74842C8.67022 4.71717 8.5739 4.68826 8.47616 4.74373C8.36647 4.80623 8.27085 4.91248 8.20827 4.94139C8.03038 4.98201 7.94179 4.88436 7.90382 4.70233C7.89397 4.65545 7.87921 4.60936 7.86515 4.56248C7.80468 4.35858 7.64085 4.34061 7.59866 4.44139C7.57827 4.47889 7.57757 4.5367 7.51358 4.52655C7.45593 4.51795 7.44679 4.47342 7.43765 4.42576C7.42147 4.3453 7.41163 4.26248 7.38983 4.18358C7.35397 4.0492 7.26819 3.99998 7.14515 4.02264C7.02843 4.04451 7.02632 4.14764 7.01929 4.24373C7.01366 4.31951 7.0221 4.39686 7.01647 4.47264C7.00663 4.60155 6.95038 4.69295 6.83015 4.72264C6.63749 4.65623 6.75702 4.62655 6.5728 4.52889C6.29718 4.51483 6.22616 4.6328 6.30702 4.96951C6.40124 5.11405 6.5278 5.21561 6.67194 5.29139C6.77038 5.25936 6.81046 5.15701 6.87515 5.08514C7.0214 4.92264 7.06077 4.8203 7.35608 4.92889C7.63804 5.0328 7.82577 5.04139 7.87288 5.38983C7.88835 5.49842 7.81944 5.79998 7.87851 5.8953Z" fill="url(#paint2_linear)"/>
<path d="M6.86319 4.90632C6.76616 4.51804 6.76546 3.60476 7.046 3.5946C7.1353 3.61101 7.12546 3.50945 7.15288 3.45164C7.16413 3.40242 7.16905 3.35164 7.16835 3.30007C7.16694 3.24695 7.1585 3.19695 7.13178 3.15476C7.08889 3.11257 7.03897 3.10632 6.98764 3.10867C6.89131 3.11101 6.82311 3.18289 6.75702 3.25945C6.6635 3.38289 6.62835 3.46101 6.55241 3.58992C6.45116 3.42742 6.44835 3.28601 6.40967 3.11648C6.371 2.94539 6.31616 2.86648 6.20014 3.02976C6.09678 3.17664 6.05881 3.09148 6.0335 2.96023C6.01592 2.86882 6.01381 2.77039 5.98991 2.6821C5.95264 2.54617 5.88233 2.44851 5.75436 2.47117C5.63483 2.49226 5.61233 2.60007 5.61655 2.73289C5.61936 2.81179 5.61725 2.89226 5.60881 2.97039C5.5821 3.21804 5.471 3.33914 5.27624 3.3032C5.12436 3.27507 4.96897 3.23992 4.83889 3.11804C4.72217 3.03289 4.62795 3.06101 4.55694 3.2071C4.54639 3.22898 4.53936 3.25242 4.53374 3.27742C4.52178 3.33914 4.52108 3.40085 4.53374 3.46335C4.67014 3.71726 4.83397 4.80945 4.99288 5.04226C5.09413 5.19148 5.13983 5.17507 5.18624 4.98523C5.201 4.92507 5.27272 4.9157 5.291 4.85632C5.43374 4.39304 5.79936 4.24695 6.06022 4.62429C6.11296 4.70007 6.1453 4.8032 6.24092 4.81257C6.39139 4.81804 6.53905 4.84226 6.68319 4.89929C6.74155 4.92117 6.80202 4.95632 6.86319 4.90632Z" fill="url(#paint3_linear)"/>
<path d="M0.952729 6.69455C1.17351 6.45783 0.749526 5.94221 0.970307 5.70549C1.04695 5.70939 1.54406 6.07267 1.61296 6.08205C2.29218 6.17267 3.12539 6.77424 3.68718 6.60783C4.19132 6.45783 3.61898 6.27189 3.39117 6.10861C3.16335 5.94533 2.6782 5.79924 2.94609 5.60314C3.09445 5.53674 3.34335 5.52502 3.55078 5.55471C4.8382 5.73986 6.2564 5.77892 7.65562 5.84142C7.95304 5.90158 7.88835 5.98439 7.84617 6.06564C7.80257 6.12502 7.75828 6.18517 7.68304 6.24221C7.57335 6.32033 7.41023 6.39377 7.35468 6.47736C7.33007 6.53283 7.34062 6.58752 7.37929 6.64299C7.46788 6.72892 7.53749 6.81564 7.55156 6.90471C7.56351 6.98205 7.55437 7.05861 7.50796 7.13517C7.43976 7.2258 7.33499 7.31252 7.2014 7.39767C6.92578 7.50705 6.76617 7.64299 6.27187 7.70236C5.89218 7.70549 5.66718 7.78517 5.3789 7.83517C3.66749 8.1297 2.21835 7.97267 1.99546 7.4258C1.85695 7.08283 1.61578 6.57346 0.952729 6.69455Z" fill="#6D8B14"/>
<path d="M0.57091 5.12813C0.531535 5.35234 0.603254 5.62031 0.670754 5.58828C0.729113 5.56016 0.902082 6.25547 0.994192 6.0875C1.01599 6.04766 1.33029 6.11875 1.43716 6.00781C1.52154 5.91953 1.40552 5.6625 1.40693 5.52891C1.40833 5.44766 1.6045 5.3125 1.50185 5.18203C1.43224 5.09297 1.05044 4.98203 1.05114 4.98203C1.19388 4.88906 1.11864 4.71719 1.16505 4.58984C1.09896 4.5 1.03216 4.41016 0.966067 4.32031C0.596926 4.35156 0.632082 4.4625 0.680598 4.69766C0.729817 4.93203 0.597629 4.97969 0.57091 5.12813Z" fill="url(#paint4_linear)"/>
<path d="M1.89208 5.42036C1.89419 5.39614 1.8956 5.3727 1.89771 5.34849C1.65372 5.09536 1.38583 4.87036 1.16576 4.58911C1.0188 4.68052 1.14396 4.87036 1.05185 4.9813C1.33169 5.12739 1.61154 5.27349 1.89208 5.42036Z" fill="url(#paint5_linear)"/>
<path d="M4.64623 3.8758C4.4149 3.82815 4.39873 4.12658 4.39873 4.3344C4.31295 4.50236 4.33896 4.68127 4.35865 4.85861C4.37482 4.92893 4.4149 4.98127 4.46693 5.02111C4.68139 5.18518 4.83045 5.41408 4.9774 5.64611C5.3367 5.6469 6.07568 6.00862 6.43568 6.00862C6.4849 5.95237 6.45607 5.89455 6.43287 5.84143C6.21279 5.3469 6.50389 5.05158 6.82732 4.91018C6.90818 4.87502 7.02279 4.90158 7.05795 4.77111C7.01576 4.50705 6.87795 4.55861 6.61357 4.30705C6.3506 4.05627 6.18115 3.90236 5.86896 3.94455C5.54693 3.98752 5.37326 4.24221 5.30646 4.67424C5.30154 4.70705 5.29873 4.74065 5.2917 4.80158C5.00693 4.53283 4.87756 3.92346 4.64623 3.8758Z" fill="url(#paint6_linear)"/>
<path d="M5.61722 8.11027C4.92394 8.2548 4.26793 7.82746 4.14207 6.92277C4.03589 6.15871 4.44793 5.43918 5.14191 5.29465C5.83589 5.15012 6.55238 5.62199 6.68035 6.38215C6.80832 7.14152 6.31121 7.96574 5.61722 8.11027Z" fill="#A60500"/>
<path d="M5.60527 7.95941C4.9598 8.09378 4.34597 7.5805 4.22644 6.87269C4.10691 6.16566 4.51261 5.52347 5.15808 5.3891C5.80355 5.25472 6.42371 5.71957 6.54253 6.4266C6.66136 7.13363 6.25074 7.82503 5.60527 7.95941Z" fill="#D90500"/>
<path d="M5.57477 7.86457C6.17669 7.73937 6.57457 7.10327 6.46346 6.44381C6.35236 5.78434 5.77433 5.35123 5.17242 5.47643C4.5705 5.60163 4.17262 6.23773 4.28373 6.89719C4.39484 7.55666 4.97286 7.98977 5.57477 7.86457Z" fill="#FE5601"/>
<path d="M5.23684 5.61651C5.02098 5.65948 4.81637 5.77901 4.67012 5.95557C4.57801 6.06651 4.5084 6.19463 4.63285 6.30792C4.72918 6.39542 4.86067 6.44151 4.97738 6.48213C5.06528 6.51338 5.15457 6.54073 5.24457 6.5626C5.24457 6.5626 4.9816 6.32901 5.08285 6.14932C5.1841 5.96963 5.33457 5.96573 5.40207 6.17198C5.47028 6.37823 5.44215 6.48292 5.44215 6.4837C5.4527 6.44542 5.52863 6.3962 5.55395 6.36651C5.61371 6.29698 5.67559 6.24151 5.74309 6.18213C5.8134 6.12042 5.8816 6.04463 5.89777 5.94698C5.92801 5.76807 5.78106 5.67354 5.65028 5.6337C5.51668 5.59307 5.37465 5.58917 5.23684 5.61651Z" fill="#A40400"/>
<path d="M6.24793 7.12268C6.25777 7.09143 6.26621 7.0594 6.27324 7.02659C6.31754 6.81878 6.30277 6.60159 6.27254 6.39065C6.25707 6.28128 6.22121 6.15237 6.12488 6.12346C6.04894 6.10081 5.97301 6.15315 5.91113 6.20628C5.77402 6.32503 5.63832 6.46565 5.53777 6.62346C5.63762 6.52659 5.84504 6.51956 5.91605 6.66331C5.94699 6.72503 5.94348 6.80628 5.90691 6.86487C5.81199 7.018 5.62215 6.92425 5.50754 6.86018C5.54691 7.02581 5.58699 7.19143 5.62637 7.35706C5.64324 7.42815 5.66433 7.5055 5.71848 7.5469C5.78598 7.59847 5.87879 7.57581 5.95121 7.53284C6.09324 7.44847 6.19379 7.29378 6.24793 7.12268Z" fill="#A40400"/>
<path d="M4.59419 7.247C4.73622 7.66809 5.23052 7.84543 5.39013 7.74153C5.48505 7.67981 5.45692 7.46731 5.44778 7.36965C5.43302 7.21106 5.40489 7.05168 5.36411 6.89934C5.37887 7.01028 5.31841 7.12825 5.22489 7.17043C5.14122 7.20793 4.92184 7.16262 4.92887 7.02668C4.93098 6.98918 4.95559 6.95872 4.9802 6.93215C5.05473 6.85247 5.13841 6.77825 5.22911 6.722L4.58434 6.44543C4.58434 6.44543 4.41559 6.71731 4.59419 7.247Z" fill="#A40400"/>
<path d="M5.46605 6.07811C5.46605 6.04374 5.46676 6.00624 5.48504 5.97811C5.50332 5.94999 5.54551 5.93905 5.56519 5.96562C5.57855 5.98358 5.57574 6.01171 5.56379 6.03124C5.55183 6.05077 5.53355 6.06405 5.51527 6.07577C5.50332 6.08358 5.49066 6.09061 5.4773 6.08983C5.46394 6.08827 5.45058 6.07343 5.4548 6.05936" fill="#FF7A42"/>
<path d="M5.43656 5.92269C5.45203 5.90003 5.44148 5.86175 5.41758 5.85393C5.39156 5.84534 5.36484 5.8719 5.35922 5.90159C5.35359 5.93128 5.36273 5.96097 5.37117 5.98987C5.40351 5.97503 5.42601 5.93831 5.42672 5.90003" fill="#FF7A42"/>
<path d="M5.2952 5.91023C5.29661 5.88367 5.29802 5.85632 5.28817 5.83289C5.27833 5.80945 5.25302 5.7907 5.23122 5.80007C5.20872 5.80945 5.20099 5.84226 5.20802 5.86726C5.21505 5.89226 5.23263 5.91179 5.2495 5.93054" fill="#FF7A42"/>
<path d="M5.16935 5.95084C5.15318 5.92506 5.15248 5.89069 5.14264 5.86178C5.13209 5.8321 5.10326 5.80475 5.07795 5.8196C5.05475 5.83288 5.05475 5.87272 5.07162 5.8946C5.0885 5.91647 5.11521 5.92506 5.14053 5.93209" fill="#FF7A42"/>
<path d="M5.0435 5.99693C5.03717 5.97193 5.03014 5.94537 5.01326 5.9274C4.99639 5.90943 4.96545 5.90474 4.95068 5.92427C4.93451 5.94537 4.94646 5.98052 4.96756 5.99458C4.98865 6.00943 5.01467 6.00943 5.03998 6.00865" fill="#FF7A42"/>
<path d="M4.97599 6.10476C4.94365 6.06491 4.89513 6.04147 4.84662 6.04226C4.83466 6.07272 4.84591 6.11179 4.87122 6.12898C4.89654 6.14616 4.9331 6.13991 4.95208 6.11413" fill="#FF7A42"/>
<path d="M4.94787 6.22507C4.92537 6.22663 4.90358 6.21647 4.88108 6.21335C4.85858 6.21022 4.83115 6.2196 4.82483 6.24382C4.81709 6.27507 4.85436 6.30085 4.88178 6.29147C4.9092 6.2821 4.92748 6.25319 4.94295 6.22585" fill="#FF7A42"/>
<path d="M4.88951 6.80018C4.86138 6.81503 4.83044 6.82987 4.80021 6.82362C4.76998 6.81737 4.74255 6.77987 4.75591 6.74862C4.76505 6.72753 4.78896 6.71893 4.81005 6.72206C4.83115 6.72518 4.84943 6.73846 4.86701 6.75175C4.87826 6.76034 4.88951 6.76972 4.89443 6.78378C4.89935 6.79784 4.89232 6.81737 4.87896 6.81893" fill="#FF7A42"/>
<path d="M4.7749 6.89708C4.75029 6.89161 4.72287 6.91818 4.72709 6.94552C4.73131 6.97521 4.76435 6.99083 4.79037 6.9838C4.81709 6.97677 4.83748 6.9549 4.85716 6.9338C4.83185 6.90802 4.79177 6.90099 4.76013 6.91583" fill="#FF7A42"/>
<path d="M4.82551 7.04395C4.80372 7.05332 4.78051 7.06348 4.76504 7.08379C4.74958 7.1041 4.74606 7.13691 4.76294 7.15566C4.77981 7.17363 4.81004 7.16816 4.82762 7.15019C4.8452 7.13223 4.85364 7.10644 4.86067 7.08144" fill="#FF7A42"/>
<path d="M4.91272 7.15247C4.89866 7.17981 4.87124 7.19465 4.85155 7.21809C4.83186 7.24075 4.82202 7.28215 4.84452 7.30169C4.86491 7.31965 4.89796 7.30169 4.9085 7.27512C4.91905 7.24856 4.91483 7.21809 4.90991 7.18918" fill="#FF7A42"/>
<path d="M5.00341 7.2595C4.98583 7.27668 4.96684 7.29465 4.95981 7.31965C4.95278 7.34465 4.96192 7.37747 4.98442 7.38372C5.00833 7.39075 5.03153 7.36419 5.03434 7.33684C5.03716 7.3095 5.02591 7.28293 5.01466 7.25793" fill="#FF7A42"/>
<path d="M5.12015 7.28137C5.10187 7.33137 5.10328 7.38918 5.12437 7.43762C5.1539 7.43684 5.18132 7.40872 5.18484 7.3759C5.18836 7.34309 5.16726 7.3095 5.13843 7.3009" fill="#FF7A42"/>
<path d="M5.23053 7.25793C5.24178 7.27981 5.24248 7.30637 5.24951 7.33059C5.25655 7.35481 5.27623 7.37825 5.29803 7.37356C5.32686 7.36809 5.33178 7.31965 5.31209 7.29622C5.29241 7.272 5.26147 7.26653 5.23264 7.26262" fill="#FF7A42"/>
<path d="M5.66856 7.07427C5.69177 7.09692 5.71637 7.1227 5.72411 7.1563C5.73114 7.18989 5.71075 7.23286 5.67981 7.2313C5.65872 7.23052 5.64184 7.20942 5.63622 7.18677C5.63059 7.16411 5.63411 7.13989 5.63833 7.11724C5.64114 7.10239 5.64395 7.08677 5.6538 7.07661C5.66364 7.06646 5.68192 7.06489 5.68895 7.07817" fill="#FF7A42"/>
<path d="M5.79371 7.15239C5.79863 7.17974 5.83168 7.19692 5.85277 7.18208C5.87527 7.16567 5.87527 7.12583 5.8591 7.10161C5.84293 7.07739 5.81691 7.06489 5.7916 7.05396C5.78035 7.09067 5.79019 7.13364 5.81551 7.15942" fill="#FF7A42"/>
<path d="M5.89496 7.04225C5.91183 7.061 5.92941 7.08053 5.95191 7.08756C5.97441 7.0946 6.00394 7.086 6.01168 7.061C6.02011 7.036 6.00324 7.00788 5.98144 6.99772C5.95965 6.98678 5.93504 6.98913 5.91113 6.99147" fill="#FF7A42"/>
<path d="M5.9498 6.91021C5.97792 6.91411 6.00113 6.93599 6.02785 6.94614C6.05456 6.95708 6.09253 6.95083 6.09956 6.91958C6.10589 6.89146 6.07847 6.86568 6.05246 6.86489C6.02644 6.86411 6.00324 6.8813 5.98144 6.89771" fill="#FF7A42"/>
<path d="M6.00184 6.77509C6.02293 6.78681 6.04543 6.79775 6.06864 6.79541C6.09184 6.79306 6.11575 6.77041 6.11223 6.74462C6.10871 6.71728 6.07707 6.704 6.05387 6.71181C6.02996 6.71962 6.01309 6.74228 5.99692 6.76259" fill="#FF7A42"/>
<path d="M5.97302 6.64768C6.02154 6.6469 6.06935 6.6219 6.10099 6.58128C6.08833 6.55159 6.05459 6.5344 6.02646 6.54456C5.99834 6.55393 5.97865 6.58909 5.98357 6.6219" fill="#FF7A42"/>
<path d="M5.91044 6.54461C5.92451 6.52429 5.9456 6.51336 5.96248 6.49617C5.97935 6.47898 5.9913 6.45008 5.97865 6.42898C5.96247 6.40242 5.92099 6.4157 5.90904 6.44539C5.89708 6.47429 5.90482 6.50867 5.91326 6.53992" fill="#FF7A42"/>
<path d="M4.76085 8.51885C4.83468 9.29854 3.74835 9.50635 3.29272 9.21182C2.8371 8.91729 2.67046 8.06417 3.11062 7.45089C3.57116 6.81026 4.68983 6.60089 4.95069 6.85479C5.45624 7.3462 4.64413 7.29151 4.76085 8.51885Z" fill="#6D8B14"/>
<path d="M8.09998 7.01798C7.94529 6.98986 7.83139 7.06798 7.71115 7.11408C7.60146 7.15548 7.55225 7.13595 7.5874 7.02267C7.64928 6.82423 7.73436 6.76173 7.79482 6.5633C7.82084 6.47736 7.85811 6.37111 7.76881 6.32111C7.68373 6.27345 7.5867 6.3383 7.50021 6.38752C7.38631 6.45158 7.29631 6.53361 7.21545 6.6297C7.14795 6.71017 7.0017 6.79767 6.86107 6.80314C6.74365 6.80783 6.67264 6.69142 6.63959 6.61642C6.62061 6.57345 6.596 6.53361 6.57279 6.49298C6.47014 6.3133 6.44201 6.30861 6.23951 6.44064C6.22123 6.48127 6.22967 6.53595 6.15232 6.5422C6.08271 6.54767 6.06584 6.50705 6.04686 6.46408C6.01521 6.39064 5.99061 6.31486 5.95334 6.24455C5.89006 6.12502 5.78178 6.09845 5.64045 6.14923C5.50686 6.19767 5.52021 6.29689 5.52654 6.38986C5.53146 6.4633 5.55326 6.53517 5.55818 6.60861C5.56662 6.73361 5.53076 6.86095 5.37748 6.89064C5.2699 6.90548 5.27623 6.81642 5.0442 6.76642C4.93451 6.74298 4.81709 6.74298 4.74186 6.87345C4.6835 6.97502 4.77068 7.15627 4.79951 7.21642C4.84873 7.31798 4.85998 7.47267 4.85717 7.5672C4.85014 7.80001 4.76084 8.02189 4.88951 8.04923C5.00061 7.99611 5.39717 8.04142 5.46326 7.95783C5.69037 7.6672 5.58912 7.94767 5.95334 7.98127C6.30209 8.01408 6.41529 7.5633 6.52498 7.88439C6.55943 7.98439 6.70779 7.68361 6.79217 7.76095C6.97076 7.45861 7.36451 7.49533 7.6085 7.39298" fill="url(#paint7_linear)"/>
<path d="M2.02851 7.49529C1.83656 7.22888 1.03218 6.60466 0.964681 6.43123C0.935149 6.35623 0.894368 6.26404 0.985071 6.22341C1.07156 6.18513 1.17281 6.24451 1.26351 6.28982C1.38234 6.34919 1.47937 6.42107 1.56374 6.50857C1.61366 6.56013 1.6432 6.63669 1.75288 6.63669C1.96452 6.71326 2.08546 6.65544 2.15507 6.51638C2.17335 6.48044 2.19796 6.44607 2.22046 6.41248C2.32101 6.26091 2.34984 6.25857 2.56148 6.37888C2.58187 6.41482 2.57413 6.46169 2.65359 6.46951C2.72531 6.47654 2.74218 6.44216 2.75976 6.40544C2.78999 6.34373 2.8132 6.27888 2.84976 6.21951C2.91163 6.11873 3.02273 6.09919 3.16898 6.14763C3.3082 6.19373 3.29695 6.27888 3.29343 6.35857C3.29062 6.42185 3.27023 6.48279 3.26671 6.54607C3.26109 6.65388 3.31804 6.74138 3.46077 6.79529C3.70406 6.78826 3.56273 6.73513 3.80038 6.69998C4.13788 6.75544 4.2089 6.86951 4.06616 7.12419C3.93187 7.21951 4.18007 7.78357 3.99445 7.81013C3.87913 7.76013 3.47202 7.78591 3.40171 7.71169C3.15984 7.45388 3.27234 7.69841 2.89827 7.71482C2.54038 7.73044 2.41171 7.33904 2.30695 7.61169C2.2746 7.69607 2.11359 7.43201 2.02851 7.49529Z" fill="url(#paint8_linear)"/>
<path d="M3.23293 6.32966C3.0677 6.50232 3.29903 6.8617 3.63372 6.94451C3.71317 6.96404 3.90231 6.93513 4.08723 6.88435C4.26231 6.83592 4.46762 6.85388 4.48098 6.8656C4.49153 6.8742 4.74114 6.69217 4.66309 6.63904C4.61598 6.60701 4.34598 6.70545 4.18426 6.65545C4.02887 6.60779 3.90442 6.43748 3.75325 6.3531C3.50575 6.21482 3.29833 6.2617 3.23293 6.32966Z" fill="#6E8C16"/>
<path d="M4.52952 7.91563C2.21835 7.87578 0.781158 6.60859 0.781158 5.71016C0.781158 8.03985 2.48061 9.64297 4.57733 9.64297C6.67405 9.64297 8.3278 7.99766 8.3278 5.66797C8.3278 6.56563 7.10577 7.96016 4.52952 7.91563Z" fill="url(#paint9_radial)"/>
<path d="M0.658814 5.42039C0.658814 5.42039 0.586393 5.38836 0.468971 5.55711C0.305846 5.79227 0.371939 6.05633 0.454908 6.09071C0.537877 6.12586 0.81983 5.93446 0.954127 6.1118C1.08842 6.28914 1.03358 6.05086 1.06944 5.99383C1.1053 5.9368 1.09194 5.70477 1.09194 5.70477L0.831783 5.44305L0.658814 5.42039Z" fill="url(#paint10_linear)"/>
<g opacity="0.2">
<path opacity="0.2" d="M4.43738 2.75242C4.44863 2.75242 4.45988 2.75242 4.47043 2.7532C4.80089 2.76882 5.12644 3.0196 5.28113 3.37742C5.30644 3.43601 5.35285 3.48054 5.4091 3.49929C5.42879 3.50632 5.44988 3.50945 5.47027 3.50945C5.50754 3.50945 5.5441 3.49851 5.57714 3.47742C5.67066 3.41648 5.78879 3.28445 5.81902 3.00476C5.82043 2.9946 5.82113 2.98445 5.82183 2.97351C5.82394 2.98757 5.82605 3.00164 5.82886 3.0157C5.87105 3.23523 5.96527 3.34617 6.11011 3.34617C6.15652 3.34617 6.198 3.3321 6.23246 3.31179C6.25566 3.43523 6.28519 3.57429 6.38011 3.72585C6.41949 3.78835 6.48347 3.82585 6.55238 3.82585C6.55308 3.82585 6.55449 3.82585 6.55519 3.82585C6.59316 3.82507 6.63043 3.81335 6.66207 3.79148C6.66488 3.8782 6.71129 3.96023 6.78722 3.99773C7.06214 4.1321 7.30191 4.28992 7.50089 4.4657C7.53957 4.50007 7.58597 4.51648 7.63168 4.51648C7.68652 4.51648 7.74066 4.49304 7.78144 4.44695C7.9734 4.23054 8.16394 4.07507 8.36152 3.97273C8.33269 4.10007 8.26589 4.2196 8.18996 4.35554C8.1773 4.3782 8.16464 4.40164 8.15199 4.42429C8.12527 4.47351 8.09996 4.52273 8.07605 4.57039C8.05214 4.61726 8.02964 4.66257 8.00574 4.70476C7.96707 4.73523 7.93894 4.77898 7.92558 4.82898C7.90871 4.89148 7.91644 4.95789 7.94597 5.01414L7.95441 5.02976C7.95863 5.03835 7.96355 5.04617 7.96777 5.05476C8.00504 5.12976 8.07535 5.17585 8.15199 5.17585C8.15621 5.17585 8.16113 5.17585 8.16535 5.17507C8.19558 5.17273 8.2223 5.16882 8.24832 5.16335C8.26097 5.16023 8.27363 5.15632 8.28558 5.15085C8.33129 5.12976 8.37347 5.09773 8.41707 5.06179C8.39879 5.09382 8.3791 5.12585 8.35519 5.16335C8.33269 5.19929 8.30808 5.23914 8.27996 5.28679C8.25324 5.3321 8.22019 5.37351 8.17871 5.41335C8.13089 5.45945 8.10418 5.52742 8.10629 5.59773C8.10629 5.60554 8.10699 5.61414 8.10769 5.62195C8.10769 5.62664 8.10839 5.63054 8.10839 5.63523C8.10839 5.76414 8.0873 5.8946 8.04652 6.02273C8.02191 6.10007 8.03527 6.18289 8.07746 6.24304C7.97832 7.07585 7.64293 7.79851 7.09379 8.35632C6.44269 9.01648 5.53144 9.38054 4.52668 9.38054C3.60207 9.38054 2.73933 9.04382 2.09738 8.43367C1.45121 7.81882 1.05816 6.94851 0.992067 5.98445C0.987848 5.92117 0.960426 5.86335 0.916833 5.82273C0.878864 5.78757 0.831051 5.76882 0.782536 5.76882C0.774802 5.76882 0.76777 5.7696 0.760036 5.77039C0.700973 5.77742 0.642614 5.7946 0.589177 5.81179C0.595505 5.77664 0.61027 5.73445 0.641208 5.68992C0.672145 5.64539 0.689723 5.63367 0.690427 5.63289C0.76988 5.58054 0.809958 5.47742 0.788161 5.37742C0.774098 5.31101 0.771989 5.22976 0.783239 5.16648C0.784645 5.15632 0.798005 5.13445 0.810661 5.11257C0.85988 5.02742 0.942848 4.88445 0.892223 4.63992L0.888005 4.6196C0.884489 4.6032 0.88027 4.58445 0.877458 4.56648C0.896442 4.56257 0.921755 4.55867 0.954801 4.55476C1.0209 4.54773 1.08066 4.50554 1.11441 4.44226C1.14886 4.37898 1.15379 4.30085 1.12777 4.2321C1.12074 4.21414 1.11371 4.19382 1.10738 4.17429C1.10035 4.15085 1.09261 4.12742 1.08418 4.1032C1.07504 4.07664 1.06238 4.03835 1.05465 4.00867C1.07574 4.02117 1.10035 4.03679 1.11793 4.04851C1.13902 4.06257 1.16011 4.07664 1.1798 4.08835C1.27332 4.1446 1.36543 4.20867 1.46175 4.28445C1.49832 4.31335 1.5405 4.32742 1.5834 4.32742C1.62347 4.32742 1.66425 4.31492 1.69941 4.28835C1.77183 4.23523 1.80769 4.13835 1.78871 4.04382C1.77746 3.98523 1.76902 3.93601 1.76269 3.8907C1.73316 3.67585 1.74582 3.55085 1.81543 3.44851C1.93425 3.54695 2.04183 3.65945 2.14238 3.78992C2.18246 3.84226 2.24082 3.87117 2.30199 3.87117C2.30902 3.87117 2.31605 3.87039 2.32379 3.8696C2.46722 3.8532 2.63316 3.73523 2.66832 3.4532C2.68519 3.32117 2.72386 3.32039 2.76465 3.32039H2.76535C2.80121 3.32039 2.87996 3.33132 3.00863 3.40242C3.02761 3.41335 3.12746 3.47976 3.21816 3.56101C3.22097 3.56414 3.22379 3.56648 3.22589 3.56882C3.26457 3.60554 3.31308 3.62507 3.3623 3.62507C3.37496 3.62507 3.38691 3.62351 3.39957 3.62117L3.41644 3.61804C3.4284 3.6157 3.44035 3.61335 3.4523 3.61101C3.52894 3.59617 3.59152 3.53679 3.61613 3.45476C3.74339 3.03445 4.07246 2.75242 4.43738 2.75242ZM6.95457 3.37664C6.95457 3.37742 6.95457 3.3782 6.95457 3.3782C6.95386 3.3782 6.95316 3.37898 6.95246 3.37898C6.95246 3.3782 6.95316 3.37742 6.95457 3.37664ZM5.7923 2.47742C5.78105 2.47742 5.7691 2.4782 5.75644 2.48054C5.63691 2.50164 5.61441 2.60867 5.61863 2.73992C5.62144 2.81804 5.61933 2.89773 5.6109 2.97507C5.59472 3.12273 5.54761 3.22429 5.47097 3.27507C5.28886 2.85476 4.90285 2.53835 4.47957 2.51882C4.4655 2.51804 4.45144 2.51804 4.43738 2.51804C3.96629 2.51804 3.5655 2.88914 3.41785 3.37976C3.39957 3.38289 3.38199 3.38679 3.36371 3.3907C3.3609 3.38835 3.35808 3.38445 3.35527 3.38289C3.25261 3.28992 3.1373 3.21179 3.10425 3.19304C2.97769 3.12273 2.86308 3.08601 2.76675 3.08601C2.60152 3.08601 2.48972 3.19382 2.4616 3.4196C2.44402 3.56179 2.38074 3.62742 2.3034 3.63601C2.18105 3.47742 2.03972 3.33054 1.86816 3.20007C1.84988 3.18601 1.82668 3.17898 1.80418 3.17898C1.77675 3.17898 1.75004 3.18914 1.73105 3.20789C1.52011 3.41882 1.52152 3.66882 1.55668 3.92429C1.56441 3.98054 1.57425 4.03679 1.5855 4.09226C1.48847 4.0157 1.38793 3.9446 1.28246 3.88054C1.203 3.83289 1.1123 3.75554 1.0223 3.75554C0.98363 3.75554 0.945661 3.7696 0.908395 3.80554C0.780426 3.92976 0.866208 4.10085 0.911208 4.24695C0.918942 4.27195 0.92738 4.29617 0.93652 4.32039C0.609567 4.35554 0.643317 4.46648 0.689723 4.6907C0.738239 4.92429 0.606052 4.97117 0.580036 5.1196C0.561052 5.22585 0.568083 5.34148 0.587067 5.43054C0.557536 5.45007 0.520973 5.48445 0.478083 5.54539C0.315661 5.77898 0.381052 6.0407 0.46402 6.07585C0.469645 6.0782 0.475973 6.07898 0.484411 6.07898C0.547692 6.07898 0.681989 6.01335 0.785348 6.00085C0.933005 8.14148 2.53191 9.61335 4.52949 9.61335C6.69722 9.61335 8.32214 8.02117 8.32214 5.70789C8.32214 5.8321 8.29683 5.96492 8.24761 6.10085C8.29613 5.95007 8.32214 5.7946 8.32214 5.63445C8.32214 5.61882 8.32074 5.60398 8.32004 5.58835C8.36996 5.53992 8.41777 5.48289 8.45925 5.41414C8.56121 5.24148 8.61464 5.18054 8.69058 4.99226C8.72363 4.91023 8.76793 4.81101 8.70113 4.74226C8.68355 4.72429 8.64277 4.70632 8.59214 4.70632C8.55699 4.70632 8.51691 4.71492 8.47683 4.73757C8.36714 4.79929 8.27152 4.90476 8.20894 4.93367C8.18996 4.93835 8.17168 4.93992 8.1548 4.94148C8.14707 4.92585 8.13793 4.90945 8.12949 4.89382C8.13863 4.88914 8.14707 4.88445 8.15621 4.87898C8.22019 4.77351 8.27222 4.65476 8.33339 4.5446C8.44027 4.35085 8.5598 4.16257 8.58441 3.92976C8.60129 3.76726 8.57035 3.68757 8.48105 3.68757C8.4466 3.68757 8.403 3.69929 8.35027 3.72351C8.07324 3.84929 7.84121 4.04851 7.63379 4.2821C7.42074 4.09382 7.1648 3.92507 6.87371 3.78289C6.91238 3.67117 6.96863 3.59851 7.04668 3.59617C7.053 3.59773 7.05933 3.59773 7.06496 3.59773C7.13457 3.59773 7.12824 3.5071 7.15355 3.45398C7.1648 3.40476 7.16972 3.35476 7.16902 3.3032C7.16761 3.25085 7.15918 3.20085 7.13246 3.15867C7.09449 3.12117 7.0509 3.11257 7.00519 3.11257C6.99957 3.11257 6.99394 3.11257 6.98832 3.11257C6.89199 3.11492 6.82379 3.18601 6.75769 3.26257C6.66418 3.38523 6.62902 3.46257 6.55308 3.5907C6.45183 3.42898 6.44902 3.28835 6.41035 3.12039C6.38644 3.0157 6.35621 2.94539 6.3098 2.94539C6.28097 2.94539 6.24582 2.97195 6.20152 3.03445C6.16285 3.08835 6.13332 3.11101 6.11082 3.11101C6.07215 3.11101 6.05105 3.04695 6.03558 2.96492C6.018 2.87351 6.01589 2.77664 5.99199 2.68914C5.95824 2.56882 5.89777 2.47742 5.7923 2.47742Z" fill="#424242"/>
</g>
<defs>
<linearGradient id="paint0_linear" x1="2.15634" y1="4.62308" x2="4.56536" y2="4.62308" gradientUnits="userSpaceOnUse">
<stop offset="0.00318878" stop-color="#2E7D32"/>
<stop offset="0.327" stop-color="#318235"/>
<stop offset="0.7217" stop-color="#3A913E"/>
<stop offset="0.9988" stop-color="#43A047"/>
</linearGradient>
<linearGradient id="paint1_linear" x1="3.76424" y1="6.39703" x2="2.57206" y2="5.20642" gradientUnits="userSpaceOnUse">
<stop offset="0.00577966" stop-color="#FFD54F"/>
<stop offset="1" stop-color="#FFC107"/>
</linearGradient>
<linearGradient id="paint2_linear" x1="7.50615" y1="5.11885" x2="7.50615" y2="8.09245" gradientUnits="userSpaceOnUse">
<stop stop-color="#7CB342"/>
<stop offset="0.6322" stop-color="#8FC257"/>
<stop offset="0.9853" stop-color="#9CCC65"/>
</linearGradient>
<linearGradient id="paint3_linear" x1="4.5252" y1="3.80461" x2="7.16927" y2="3.80461" gradientUnits="userSpaceOnUse">
<stop offset="0.00318878" stop-color="#2E7D32"/>
<stop offset="0.327" stop-color="#318235"/>
<stop offset="0.7217" stop-color="#3A913E"/>
<stop offset="0.9988" stop-color="#43A047"/>
</linearGradient>
<linearGradient id="paint4_linear" x1="0.559717" y1="5.2165" x2="1.53158" y2="5.2165" gradientUnits="userSpaceOnUse">
<stop stop-color="#7CB342"/>
<stop offset="0.6322" stop-color="#8FC257"/>
<stop offset="0.9853" stop-color="#9CCC65"/>
</linearGradient>
<linearGradient id="paint5_linear" x1="1.47419" y1="5.11892" x2="1.47419" y2="8.09251" gradientUnits="userSpaceOnUse">
<stop stop-color="#7CB342"/>
<stop offset="0.6322" stop-color="#8FC257"/>
<stop offset="0.9853" stop-color="#9CCC65"/>
</linearGradient>
<linearGradient id="paint6_linear" x1="5.69824" y1="5.11889" x2="5.69824" y2="8.09249" gradientUnits="userSpaceOnUse">
<stop stop-color="#7CB342"/>
<stop offset="0.6322" stop-color="#8FC257"/>
<stop offset="0.9853" stop-color="#9CCC65"/>
</linearGradient>
<linearGradient id="paint7_linear" x1="6.41051" y1="5.15889" x2="6.40984" y2="8.03763" gradientUnits="userSpaceOnUse">
<stop stop-color="#7CB342"/>
<stop offset="0.6322" stop-color="#8FC257"/>
<stop offset="0.9853" stop-color="#9CCC65"/>
</linearGradient>
<linearGradient id="paint8_linear" x1="2.53232" y1="5.11884" x2="2.53232" y2="8.09244" gradientUnits="userSpaceOnUse">
<stop stop-color="#7CB342"/>
<stop offset="0.6322" stop-color="#8FC257"/>
<stop offset="0.9853" stop-color="#9CCC65"/>
</linearGradient>
<radialGradient id="paint9_radial" cx="0" cy="0" r="1" gradientUnits="userSpaceOnUse" gradientTransform="translate(4.55416 7.65549) scale(2.95278 3.28087)">
<stop stop-color="white"/>
<stop offset="0.2581" stop-color="#F9F9F9"/>
<stop offset="0.6037" stop-color="#E8E8E8"/>
<stop offset="0.9977" stop-color="#CCCCCC"/>
<stop offset="1" stop-color="#CCCCCC"/>
</radialGradient>
<linearGradient id="paint10_linear" x1="0.368768" y1="5.79728" x2="1.09439" y2="5.79728" gradientUnits="userSpaceOnUse">
<stop stop-color="#7CB342"/>
<stop offset="0.6322" stop-color="#8FC257"/>
<stop offset="0.9853" stop-color="#9CCC65"/>
</linearGradient>
</defs>
</svg>
